<?xml version="1.0" encoding="UTF-8" ?>
<!DOCTYPE svg PUBLIC "-//W3C//DTD SVG 1.1//EN" "http://www.w3.org/Graphics/SVG/1.1/DTD/svg11.dtd">
<svg width="1346pt" height="1055pt" viewBox="0 0 1346 1055" version="1.1" xmlns="http://www.w3.org/2000/svg">
    <path fill="#000000" opacity="1.00"
        d=" M 870.69 12.55 C 917.85 4.17 964.50 42.13 969.09 89.00 C 969.96 111.19 974.96 132.89 977.07 154.95 C 1000.87 153.07 1025.37 147.04 1048.87 154.15 C 1085.89 162.92 1117.28 195.91 1117.81 235.12 C 1127.69 278.91 1095.89 321.94 1055.26 335.26 C 1052.03 335.46 1053.33 338.60 1054.77 340.21 C 1069.39 358.59 1083.22 377.64 1095.24 397.84 C 1132.38 384.02 1171.73 406.54 1190.10 438.88 C 1226.13 499.46 1220.07 589.67 1163.22 635.53 C 1163.95 653.88 1160.84 671.96 1156.94 689.79 C 1191.21 695.44 1225.00 704.35 1258.11 714.88 C 1283.65 724.96 1314.50 733.69 1327.71 760.24 C 1335.19 776.54 1324.84 796.03 1310.07 804.06 C 1279.07 826.50 1240.44 833.85 1203.42 839.43 C 1156.59 846.47 1108.86 844.50 1061.78 842.65 C 962.87 920.59 832.14 943.33 709.27 943.18 C 691.63 973.21 676.46 1006.29 677.77 1041.97 C 637.09 1030.38 610.45 985.69 610.65 944.54 C 594.20 929.33 568.92 934.37 548.59 928.20 C 527.10 962.37 506.03 1000.15 507.78 1041.97 C 467.24 1030.18 440.29 985.89 440.68 944.53 C 417.20 929.08 399.36 902.73 402.73 873.50 C 377.74 858.16 353.65 840.95 333.22 819.78 C 283.62 770.70 257.33 701.13 255.82 631.94 C 197.63 671.39 129.24 699.73 58.11 700.00 C 40.77 698.28 19.86 693.52 11.66 676.27 C 5.47 658.72 15.72 641.56 26.33 628.33 C 61.95 584.27 115.75 559.40 166.71 538.89 C 127.85 511.54 88.48 479.87 62.35 438.66 C 48.25 416.98 31.61 382.26 56.45 362.54 C 88.74 347.47 123.39 363.50 153.71 376.27 C 203.53 401.21 248.94 436.04 283.28 480.12 C 293.88 454.29 306.11 429.11 319.85 404.82 C 322.55 401.28 317.85 399.32 315.59 397.40 C 296.55 382.76 285.66 359.12 284.86 335.32 C 277.74 307.15 290.27 277.25 310.77 257.78 C 330.99 237.61 360.04 229.17 387.91 227.70 C 387.95 206.67 381.42 186.29 380.89 165.29 C 370.80 119.46 405.92 69.13 452.91 63.89 C 592.15 46.37 731.38 29.33 870.69 12.55 M 833.45 56.46 C 707.84 71.50 582.32 87.37 456.72 102.48 C 422.26 109.41 411.80 149.09 422.15 179.02 C 424.64 192.30 424.46 205.94 427.20 219.15 C 460.53 215.69 493.59 210.69 526.92 207.37 C 534.44 197.54 540.27 186.47 548.01 176.77 C 557.66 184.10 564.16 196.34 575.26 201.09 C 695.78 186.45 816.38 171.66 936.91 156.80 C 935.75 143.41 933.97 130.07 932.00 116.78 C 933.71 90.87 923.34 60.89 896.32 52.59 C 875.53 48.99 854.15 53.70 833.45 56.46 M 1006.40 191.44 C 798.95 216.91 591.36 242.12 383.92 267.97 C 358.24 268.58 330.93 283.58 323.33 309.51 C 322.58 322.59 323.84 335.92 326.21 348.81 L 327.03 348.98 C 337.56 374.47 369.67 384.51 394.97 380.03 C 425.34 375.16 455.95 372.65 486.43 368.62 C 490.65 362.15 494.35 355.30 499.31 349.35 C 508.48 351.19 511.03 368.31 522.31 364.45 C 548.11 359.50 574.43 358.69 600.37 354.60 C 607.23 342.99 616.37 332.83 622.57 320.81 C 624.55 318.40 626.32 315.80 628.51 313.56 C 629.85 315.02 632.51 317.93 633.84 319.39 L 634.71 319.29 L 633.85 319.39 C 643.09 328.30 652.04 337.52 660.95 346.77 C 764.07 334.66 867.05 321.39 970.12 309.13 C 995.18 303.68 1021.71 306.40 1045.88 296.90 C 1061.55 289.54 1077.90 275.74 1078.56 257.28 C 1081.70 251.03 1079.20 244.08 1078.38 237.55 C 1078.77 202.64 1036.69 183.15 1006.40 191.44 M 996.94 345.89 C 813.34 367.99 629.86 390.98 446.31 413.28 C 415.81 416.69 384.95 423.76 354.35 417.26 C 305.36 500.09 274.56 601.61 302.02 696.89 C 316.20 749.72 351.98 795.27 396.44 826.36 C 396.16 795.96 420.62 774.79 444.31 760.11 C 482.42 737.78 527.27 722.34 554.08 685.10 C 537.09 740.45 477.90 762.74 439.13 800.13 C 429.58 811.07 417.62 824.08 421.51 839.96 C 448.91 806.54 490.65 787.88 530.93 774.87 C 499.12 801.22 460.93 823.56 441.85 861.80 C 433.57 877.81 438.69 898.30 451.70 910.07 C 463.31 845.35 524.48 806.49 578.88 778.87 C 547.75 809.31 516.52 840.75 494.97 878.97 C 475.41 912.64 466.53 955.71 483.74 992.06 C 491.60 932.28 536.59 887.52 571.36 841.35 C 610.06 794.12 648.94 734.70 633.21 670.60 C 651.74 719.99 635.01 774.22 613.94 820.21 L 613.04 820.14 C 600.42 846.30 584.23 870.51 568.82 895.07 C 607.15 901.72 646.04 906.26 684.93 907.04 C 796.42 909.33 915.31 895.74 1011.09 834.21 C 993.09 830.96 972.52 825.07 963.75 807.21 C 949.20 778.34 953.05 743.38 963.90 713.89 C 971.62 693.08 988.85 673.37 1011.92 670.74 C 1048.92 670.92 1085.33 677.29 1121.79 682.81 C 1123.20 672.16 1127.29 661.81 1125.57 650.88 C 1125.00 651.02 1123.86 651.31 1123.29 651.45 C 1099.16 650.69 1075.17 640.10 1059.98 621.01 C 1018.71 571.25 1016.87 496.53 1047.09 440.82 C 1053.08 433.24 1057.59 424.38 1065.03 417.90 C 1050.27 392.54 1032.36 368.92 1013.16 346.73 C 1009.06 341.28 1002.34 345.45 996.94 345.89 M 1054.21 498.44 C 1045.62 541.87 1058.40 599.13 1101.00 621.96 C 1129.98 635.97 1160.96 612.21 1172.22 586.28 C 1192.36 548.00 1192.18 500.05 1174.10 460.91 C 1164.42 441.85 1148.50 423.51 1126.70 419.06 C 1083.99 414.62 1057.17 461.89 1054.21 498.44 M 1012.94 707.32 C 995.93 718.25 991.84 741.29 990.86 760.06 C 991.06 771.71 989.20 791.35 1003.66 795.36 C 1057.14 810.31 1113.31 808.96 1168.31 807.34 C 1206.89 802.89 1248.03 799.40 1282.02 779.08 C 1286.12 777.91 1295.74 773.45 1289.78 769.22 C 1261.88 751.02 1228.86 743.36 1197.10 734.90 C 1136.44 721.84 1075.25 707.58 1012.94 707.32 M 645.02 942.14 C 644.71 958.91 645.56 977.03 653.74 992.06 C 654.64 974.36 662.22 958.08 669.09 942.06 C 661.06 941.80 653.03 941.95 645.02 942.14 Z" />
    <path fill="#ee4036" opacity="1.00"
        d=" M 833.45 56.46 C 854.15 53.70 875.53 48.99 896.32 52.59 C 923.34 60.89 933.71 90.87 932.00 116.78 C 762.03 137.33 592.16 158.85 422.15 179.02 C 411.80 149.09 422.26 109.41 456.72 102.48 C 582.32 87.37 707.84 71.50 833.45 56.46 Z" />
    <path fill="#be1e2d" opacity="1.00"
        d=" M 422.15 179.02 C 592.16 158.85 762.03 137.33 932.00 116.78 C 933.97 130.07 935.75 143.41 936.91 156.80 C 816.38 171.66 695.78 186.45 575.26 201.09 C 564.16 196.34 557.66 184.10 548.01 176.77 C 540.27 186.47 534.44 197.54 526.92 207.37 C 493.59 210.69 460.53 215.69 427.20 219.15 C 424.46 205.94 424.64 192.30 422.15 179.02 Z" />
    <path fill="#ffffff" opacity="1.00"
        d=" M 1006.40 191.44 C 1036.69 183.15 1078.77 202.64 1078.38 237.55 C 1079.20 244.08 1081.70 251.03 1078.56 257.28 C 1066.35 262.66 1054.13 268.56 1040.59 269.58 C 905.29 286.13 770.03 302.95 634.71 319.29 L 633.84 319.39 C 632.51 317.93 629.85 315.02 628.51 313.56 C 626.32 315.80 624.55 318.40 622.57 320.81 C 552.37 329.78 482.05 337.85 411.85 346.86 C 383.68 348.85 354.90 357.76 327.03 348.98 L 326.21 348.81 C 323.84 335.92 322.58 322.59 323.33 309.51 C 330.93 283.58 358.24 268.58 383.92 267.97 C 591.36 242.12 798.95 216.91 1006.40 191.44 Z" />
    <path fill="#bbbdbf" opacity="1.00"
        d=" M 1040.59 269.58 C 1054.13 268.56 1066.35 262.66 1078.56 257.28 C 1077.90 275.74 1061.55 289.54 1045.88 296.90 C 1021.71 306.40 995.18 303.68 970.12 309.13 C 867.05 321.39 764.07 334.66 660.95 346.77 C 652.04 337.52 643.09 328.30 633.85 319.39 L 634.71 319.29 C 770.03 302.95 905.29 286.13 1040.59 269.58 Z" />
    <path fill="#bbbdbf" opacity="1.00"
        d=" M 411.85 346.86 C 482.05 337.85 552.37 329.78 622.57 320.81 C 616.37 332.83 607.23 342.99 600.37 354.60 C 574.43 358.69 548.11 359.50 522.31 364.45 C 511.03 368.31 508.48 351.19 499.31 349.35 C 494.35 355.30 490.65 362.15 486.43 368.62 C 455.95 372.65 425.34 375.16 394.97 380.03 C 369.67 384.51 337.56 374.47 327.03 348.98 C 354.90 357.76 383.68 348.85 411.85 346.86 Z" />
    <path fill="#ffcc00" opacity="1.00"
        d=" M 996.94 345.89 C 1002.34 345.45 1009.06 341.28 1013.16 346.73 C 1032.36 368.92 1050.27 392.54 1065.03 417.90 C 1057.59 424.38 1053.08 433.24 1047.09 440.82 C 993.44 486.73 991.66 578.52 1037.21 630.78 C 1057.36 655.58 1094.11 665.83 1123.29 651.45 C 1123.86 651.31 1125.00 651.02 1125.57 650.88 C 1127.29 661.81 1123.20 672.16 1121.79 682.81 C 1085.33 677.29 1048.92 670.92 1011.92 670.74 C 1013.49 670.49 1016.64 669.99 1018.21 669.74 C 998.80 651.12 967.13 654.75 948.11 672.10 C 912.15 703.75 899.46 757.69 912.12 803.15 C 875.04 811.66 837.28 819.18 799.16 819.99 C 762.29 816.60 727.46 800.41 690.18 800.17 C 663.11 800.74 641.82 825.39 613.94 820.21 C 635.01 774.22 651.74 719.99 633.21 670.60 C 648.94 734.70 610.06 794.12 571.36 841.35 C 536.59 887.52 491.60 932.28 483.74 992.06 C 466.53 955.71 475.41 912.64 494.97 878.97 C 516.52 840.75 547.75 809.31 578.88 778.87 C 524.48 806.49 463.31 845.35 451.70 910.07 C 438.69 898.30 433.57 877.81 441.85 861.80 C 460.93 823.56 499.12 801.22 530.93 774.87 C 490.65 787.88 448.91 806.54 421.51 839.96 C 417.62 824.08 429.58 811.07 439.13 800.13 C 477.90 762.74 537.09 740.45 554.08 685.10 C 527.27 722.34 482.42 737.78 444.31 760.11 C 429.15 740.70 404.88 753.48 385.41 755.82 C 353.20 744.33 327.05 719.60 302.02 696.89 C 274.56 601.61 305.36 500.09 354.35 417.26 C 384.95 423.76 415.81 416.69 446.31 413.28 C 629.86 390.98 813.34 367.99 996.94 345.89 M 847.06 391.85 C 817.96 393.27 793.44 414.06 775.99 435.99 C 735.14 491.47 733.54 572.53 771.26 630.03 C 753.50 644.53 733.96 656.79 716.05 670.99 C 720.98 679.49 728.24 686.39 733.15 694.95 C 753.20 682.16 771.56 666.81 791.31 653.54 C 795.72 658.59 801.37 662.64 807.15 665.98 C 796.99 686.63 784.66 706.12 774.90 726.95 C 783.23 732.25 792.08 736.64 800.93 740.97 C 811.98 720.45 823.73 700.13 833.92 679.28 C 877.46 693.13 927.26 672.19 950.94 633.95 C 1010.39 572.18 1009.36 459.92 945.08 401.92 C 918.69 378.50 877.43 373.05 847.06 391.85 Z" />
    <path fill="#000000" opacity="1.00"
        d=" M 847.06 391.85 C 877.43 373.05 918.69 378.50 945.08 401.92 C 1009.36 459.92 1010.39 572.18 950.94 633.95 C 928.11 656.72 892.09 667.46 861.41 655.54 C 828.54 643.79 806.13 613.39 794.46 581.56 C 770.94 516.47 785.78 431.03 847.06 391.85 M 814.65 492.21 L 814.41 491.36 C 804.52 543.07 821.49 614.48 878.09 631.97 C 909.15 639.03 936.78 614.76 950.02 589.03 C 971.14 549.80 971.42 500.66 954.07 459.95 C 943.39 435.44 922.56 411.86 894.88 408.00 C 849.38 405.79 820.13 452.07 814.65 492.21 Z" />
    <path fill="#cea806" opacity="1.00"
        d=" M 775.99 435.99 C 793.44 414.06 817.96 393.27 847.06 391.85 C 785.78 431.03 770.94 516.47 794.46 581.56 C 806.13 613.39 828.54 643.79 861.41 655.54 C 892.09 667.46 928.11 656.72 950.94 633.95 C 927.26 672.19 877.46 693.13 833.92 679.28 C 824.69 675.49 816.36 669.83 807.15 665.98 C 801.37 662.64 795.72 658.59 791.31 653.54 C 784.85 646.86 781.39 630.07 771.26 630.03 C 733.54 572.53 735.14 491.47 775.99 435.99 Z" />
    <path fill="#ffffff" opacity="1.00"
        d=" M 814.65 492.21 C 820.13 452.07 849.38 405.79 894.88 408.00 C 922.56 411.86 943.39 435.44 954.07 459.95 C 971.42 500.66 971.14 549.80 950.02 589.03 C 928.49 606.58 896.09 610.75 872.00 596.01 C 835.23 575.21 818.71 532.31 814.65 492.21 M 906.73 479.82 C 886.37 497.14 885.21 528.60 893.74 552.25 C 898.52 565.25 911.51 578.66 926.64 572.96 C 940.95 566.61 947.18 549.68 948.97 535.17 C 939.30 533.25 929.57 531.57 920.05 528.93 C 927.99 518.91 936.52 509.40 944.72 499.62 C 942.24 483.17 922.14 467.88 906.73 479.82 Z" />
    <path fill="#ffffff" opacity="1.00"
        d=" M 1054.21 498.44 C 1057.17 461.89 1083.99 414.62 1126.70 419.06 C 1148.50 423.51 1164.42 441.85 1174.10 460.91 C 1192.18 500.05 1192.36 548.00 1172.22 586.28 C 1153.88 600.22 1127.41 605.18 1106.92 593.06 C 1073.05 574.67 1057.94 534.90 1054.21 498.44 M 1135.61 484.68 C 1112.43 505.40 1112.90 548.56 1136.21 568.90 C 1156.77 580.79 1172.25 553.03 1171.80 535.44 C 1163.36 534.74 1155.27 532.21 1146.99 530.68 C 1152.74 520.44 1162.23 512.71 1168.64 502.84 C 1165.87 488.69 1149.70 473.37 1135.61 484.68 Z" />
    <path fill="#cea806" opacity="1.00"
        d=" M 1037.21 630.78 C 991.66 578.52 993.44 486.73 1047.09 440.82 C 1016.87 496.53 1018.71 571.25 1059.98 621.01 C 1075.17 640.10 1099.16 650.69 1123.29 651.45 C 1094.11 665.83 1057.36 655.58 1037.21 630.78 Z" />
    <path fill="#000000" opacity="1.00"
        d=" M 906.73 479.82 C 922.14 467.88 942.24 483.17 944.72 499.62 C 936.52 509.40 927.99 518.91 920.05 528.93 C 929.57 531.57 939.30 533.25 948.97 535.17 C 947.18 549.68 940.95 566.61 926.64 572.96 C 911.51 578.66 898.52 565.25 893.74 552.25 C 885.21 528.60 886.37 497.14 906.73 479.82 Z" />
    <path fill="#000000" opacity="1.00"
        d=" M 1135.61 484.68 C 1149.70 473.37 1165.87 488.69 1168.64 502.84 C 1162.23 512.71 1152.74 520.44 1146.99 530.68 C 1155.27 532.21 1163.36 534.74 1171.80 535.44 C 1172.25 553.03 1156.77 580.79 1136.21 568.90 C 1112.90 548.56 1112.43 505.40 1135.61 484.68 Z" />
    <path fill="#d0d2d3" opacity="1.00"
        d=" M 814.41 491.36 L 814.65 492.21 C 818.71 532.31 835.23 575.21 872.00 596.01 C 896.09 610.75 928.49 606.58 950.02 589.03 C 936.78 614.76 909.15 639.03 878.09 631.97 C 821.49 614.48 804.52 543.07 814.41 491.36 Z" />
    <path fill="#d0d2d3" opacity="1.00"
        d=" M 1101.00 621.96 C 1058.40 599.13 1045.62 541.87 1054.21 498.44 C 1057.94 534.90 1073.05 574.67 1106.92 593.06 C 1127.41 605.18 1153.88 600.22 1172.22 586.28 C 1160.96 612.21 1129.98 635.97 1101.00 621.96 Z" />
    <path fill="#000000" opacity="1.00"
        d=" M 771.26 630.03 C 781.39 630.07 784.85 646.86 791.31 653.54 C 771.56 666.81 753.20 682.16 733.15 694.95 C 728.24 686.39 720.98 679.49 716.05 670.99 C 733.96 656.79 753.50 644.53 771.26 630.03 Z" />
    <path fill="#cea806" opacity="1.00"
        d=" M 948.11 672.10 C 967.13 654.75 998.80 651.12 1018.21 669.74 C 1016.64 669.99 1013.49 670.49 1011.92 670.74 C 988.85 673.37 971.62 693.08 963.90 713.89 C 953.05 743.38 949.20 778.34 963.75 807.21 C 972.52 825.07 993.09 830.96 1011.09 834.21 C 915.31 895.74 796.42 909.33 684.93 907.04 C 646.04 906.26 607.15 901.72 568.82 895.07 C 584.23 870.51 600.42 846.30 613.04 820.14 L 613.94 820.21 C 641.82 825.39 663.11 800.74 690.18 800.17 C 727.46 800.41 762.29 816.60 799.16 819.99 C 837.28 819.18 875.04 811.66 912.12 803.15 C 899.46 757.69 912.15 703.75 948.11 672.10 Z" />
    <path fill="#000000" opacity="1.00"
        d=" M 807.15 665.98 C 816.36 669.83 824.69 675.49 833.92 679.28 C 823.73 700.13 811.98 720.45 800.93 740.97 C 792.08 736.64 783.23 732.25 774.90 726.95 C 784.66 706.12 796.99 686.63 807.15 665.98 Z" />
    <path fill="#cea806" opacity="1.00"
        d=" M 302.02 696.89 C 327.05 719.60 353.20 744.33 385.41 755.82 C 404.88 753.48 429.15 740.70 444.31 760.11 C 420.62 774.79 396.16 795.96 396.44 826.36 C 351.98 795.27 316.20 749.72 302.02 696.89 Z" />
    <path fill="#ff6600" opacity="1.00"
        d=" M 1012.94 707.32 C 1075.25 707.58 1136.44 721.84 1197.10 734.90 C 1228.86 743.36 1261.88 751.02 1289.78 769.22 C 1295.74 773.45 1286.12 777.91 1282.02 779.08 C 1184.81 791.43 1086.73 776.24 990.86 760.06 C 991.84 741.29 995.93 718.25 1012.94 707.32 Z" />
    <path fill="#cc3300" opacity="1.00"
        d=" M 990.86 760.06 C 1086.73 776.24 1184.81 791.43 1282.02 779.08 C 1248.03 799.40 1206.89 802.89 1168.31 807.34 C 1113.31 808.96 1057.14 810.31 1003.66 795.36 C 989.20 791.35 991.06 771.71 990.86 760.06 Z" />
    <path fill="#ffcc00" opacity="1.00"
        d=" M 645.02 942.14 C 653.03 941.95 661.06 941.80 669.09 942.06 C 662.22 958.08 654.64 974.36 653.74 992.06 C 645.56 977.03 644.71 958.91 645.02 942.14 Z" />
</svg>